<svg viewBox="0 0 40 40" xmlns="http://www.w3.org/2000/svg"><path d="M13.88 13.842a1.33 1.33 0 0 0 .996-.759l3.91-8.31a1.297 1.297 0 0 1 2.374 0l3.91 8.31c.194.41.567.692.998.758l8.745 1.332c1.085.166 1.519 1.564.733 2.367l-6.328 6.467a1.433 1.433 0 0 0-.381 1.23l1.494 9.131c.185 1.134-.95 1.998-1.92 1.463l-7.822-4.312a1.27 1.27 0 0 0-1.231 0l-7.822 4.312c-.971.535-2.106-.329-1.92-1.463l1.494-9.132a1.435 1.435 0 0 0-.381-1.229L4.4 17.54c-.785-.802-.352-2.2.734-2.366l8.745-1.332z" stroke="#4D4D4D" stroke-width="2" fill="none"/></svg>